# xmcd CD database file
#
# Track frame offsets:
#	150
#	16439
#	31327
#	43441
#	65285
#	79542
#	95083
#	113580
#	124359
#	139143
#
# Disc length: 2058 seconds
#
# Revision: 0
# Processed by: cddbd v1.5.2PL0 Copyright (c) Steve Scherf et al.
# Submitted via: CDex 1.70beta2
#
DISCID=8708080a
DTITLE=Rogers, Dan Paul - Cdn. - Love Martyr
DYEAR=1900
DGENRE=Country
TTITLE0=Country Lady
TTITLE1=If Your Love Was Forever
TTITLE2=Lover's Game
TTITLE3=You and I
TTITLE4=You'rer Just A Little Doll
TTITLE5=Don't Cry Lady
TTITLE6=A Place Out In the Country
TTITLE7=Rumour
TTITLE8=In My Mind Again
TTITLE9=Love Martyr
EXTD=
EXTT0=
EXTT1=
EXTT2=
EXTT3=
EXTT4=
EXTT5=
EXTT6=
EXTT7=
EXTT8=
EXTT9=
PLAYORDER=
